<svg aria-hidden="true" style="position: absolute; width: 0; height: 0; overflow: hidden;" version="1.1" xmlns="http://www.w3.org/2000/svg" xmlns:xlink="http://www.w3.org/1999/xlink">
<defs>
<symbol id="icon-delivery_dining" viewBox="0 0 24 24">
<path d="M18.984 17.016q0.422 0 0.727-0.305t0.305-0.727-0.305-0.703-0.727-0.281-0.703 0.281-0.281 0.703 0.281 0.727 0.703 0.305zM18.984 12.984q1.219 0 2.109 0.891t0.891 2.109-0.891 2.109-2.109 0.891-2.109-0.891-0.891-2.109 0.891-2.109 2.109-0.891zM5.016 6h4.969v2.016h-4.969v-2.016zM6.984 17.016q0.422 0 0.727-0.305t0.305-0.727h-2.016q0 0.422 0.281 0.727t0.703 0.305zM18.984 6.984v3.375l-4.5 5.625h-4.5q0 1.219-0.891 2.109t-2.109 0.891-2.109-0.891-0.891-2.109h-1.969v-3q0-1.641 1.172-2.813t2.813-1.172h3.984v5.016h3.516l3.516-4.359v-2.672h-3v-1.969h3q0.797 0 1.383 0.586t0.586 1.383z"></path>
</symbol>

<symbol id="icon-menu" viewBox="0 0 20 20">
<path d="M0 3h20v2h-20v-2zM0 9h20v2h-20v-2zM0 15h20v2h-20v-2z"></path>
</symbol>

<symbol id="icon-motorcycle" viewBox="0 0 24 24">
<path d="M17.484 17.016q1.031 0 1.758-0.75t0.727-1.781-0.727-1.758-1.758-0.727-1.781 0.727-0.75 1.758 0.75 1.781 1.781 0.75zM8.859 15.281l-2.859-0.047v-1.5h2.859q-0.563-1.734-2.391-1.734-1.031 0-1.758 0.727t-0.727 1.758 0.727 1.781 1.758 0.75q0.75 0 1.477-0.516t0.914-1.219zM17.484 9.984q1.875 0 3.188 1.313t1.313 3.188-1.313 3.188-3.188 1.313-3.188-1.313-1.313-3.188q0-0.094 0.023-0.234t0.023-0.234l-2.109 1.266q-0.281 1.547-1.57 2.625t-2.836 1.078q-1.875 0-3.188-1.313t-1.313-3.188 1.289-3.188 3.164-1.313h8.109l-1.969-1.969h-3.609v-2.016h4.406l4.031 4.031q0-0.047 0.047-0.047z"></path>
</symbol>


</defs>
</svg>
