<!-- Generated by IcoMoon.io -->
<svg version="1.1" xmlns="http://www.w3.org/2000/svg" width="768" height="768" viewBox="0 0 768 768">
<title></title>
<g id="icomoon-ignore">
</g>
<path fill="#000" d="M494.656 434.109c0.163-7.222-2.388-14.196-6.805-19.648-4.651-5.725-11.416-9.779-19.466-10.922-8.089-0.99-17.137-3.174-26.149-6.531-4.378-1.609-9.030-2.206-13.589-1.76-6.703 0.647-13.215 3.529-18.394 8.645l-7.279 7.279c-17.897-11.296-33.977-26.968-46.341-46.403l7.341-7.341c3.256-3.337 5.693-7.341 7.149-11.691 2.143-6.39 2.165-13.51-0.393-20.334-2.923-7.615-5.237-16.623-6.512-26.239-1.052-7.222-4.612-13.599-9.737-18.241-5.45-4.914-12.699-7.877-20.495-7.797h-30.296c-0.891 0-1.841 0.039-2.762 0.122-8.334 0.757-15.594 4.834-20.558 10.78s-7.663 13.822-6.904 22.236c3.032 31.103 13.801 63.127 32.521 92.038 15.189 24.398 36.887 46.746 63.684 63.766 25.968 17.159 57.474 28.94 91.874 32.672 0.93 0.091 1.93 0.133 2.913 0.133 8.372-0.029 15.958-3.469 21.415-8.968s8.827-13.115 8.796-21.446zM474.431 434.109v30.334c0.010 2.83-1.103 5.361-2.934 7.201s-4.337 2.983-7.139 2.992c-31.84-3.396-60.274-14.066-83.553-29.445-24.551-15.604-44.077-35.765-57.656-57.577-17.159-26.493-26.846-55.422-29.567-83.301-0.241-2.711 0.647-5.319 2.315-7.32s4.076-3.337 6.857-3.589l31.226-0.049c2.741-0.029 5.127 0.95 6.946 2.59 1.717 1.556 2.913 3.702 3.266 6.147 1.437 10.839 4.124 21.405 7.653 30.588 0.818 2.185 0.808 4.519 0.101 6.655-0.496 1.468-1.323 2.84-2.445 3.994l-12.762 12.751c-3.277 3.277-3.833 8.23-1.639 12.143 16.016 28.161 38.821 50.124 64.523 64.495 4.015 2.244 8.919 1.458 12.084-1.679l12.841-12.841c1.679-1.659 3.812-2.599 6.047-2.819 1.536-0.153 3.137 0.049 4.642 0.605 10.334 3.854 20.932 6.431 30.679 7.625 2.436 0.346 4.67 1.679 6.218 3.589 1.486 1.832 2.336 4.166 2.285 6.895z"></path>
</svg>
